<svg width="77" height="75" viewBox="0 0 77 75" fill="none" xmlns="http://www.w3.org/2000/svg">
<path d="M38.2916 1.75024C38.2916 1.75024 25.8635 14.0836 38.0642 31.0776C38.159 31.0586 54.5846 18.7631 38.2916 1.75024Z" fill="#A14F4C"/>
<path d="M9.43788 15.9404C9.43788 15.9404 11.143 33.3701 32.0207 34.6394C32.0586 34.5636 32.9111 14.0648 9.43788 15.9404Z" fill="#A14F4C"/>
<path d="M1.42401 47.4842C1.42401 47.4842 16.656 56.1233 30.3914 41.7817C30.3724 41.7059 14.4773 29.3157 1.42401 47.4842Z" fill="#A14F4C"/>
<path d="M21.9039 73.174C21.9039 73.174 38.2158 66.8273 35.7719 47.1052C35.6961 47.0673 16.0498 51.5574 21.9039 73.174Z" fill="#A14F4C"/>
<path d="M54.5277 73.25C54.5277 73.25 59.9082 56.3318 42.4596 46.2908C42.3838 46.3476 33.3658 64.8003 54.5277 73.25Z" fill="#A14F4C"/>
<path d="M68.0168 16.0729C68.0168 16.0729 50.3408 14.3867 44.2215 33.5594C44.2594 33.6162 64.2088 38.542 68.0168 16.0729Z" fill="#A14F4C"/>
<path d="M76.3148 48.2042C76.3148 48.2042 64.3982 32.4417 46.3244 41.2891C46.3055 41.3839 57.4642 60.9923 76.3148 48.2042Z" fill="#A14F4C"/>
<path d="M38.9926 44.9455C42.2466 44.9455 44.8846 42.1973 44.8846 38.8072C44.8846 35.4171 42.2466 32.6689 38.9926 32.6689C35.7385 32.6689 33.1006 35.4171 33.1006 38.8072C33.1006 42.1973 35.7385 44.9455 38.9926 44.9455Z" fill="#F0C419"/>
<path d="M44.9224 16.4328C44.9224 25.1855 38.7273 32.271 38.7273 32.271C38.7273 32.271 32.5322 25.1855 32.5322 16.4328C32.5322 7.68003 38.7273 0.594482 38.7273 0.594482C38.7273 0.594482 44.9224 7.68003 44.9224 16.4328Z" stroke="black" stroke-width="0.8" stroke-miterlimit="10" stroke-linecap="round" stroke-linejoin="round"/>
<path d="M24.5752 20.0893C31.4145 25.5455 33.1006 34.8098 33.1006 34.8098C33.1006 34.8098 23.7037 35.2266 16.8455 29.7703C9.9873 24.3141 8.32011 15.0498 8.32011 15.0498C8.32011 15.0498 17.7359 14.633 24.5752 20.0893Z" stroke="black" stroke-width="0.8" stroke-miterlimit="10" stroke-linecap="round" stroke-linejoin="round"/>
<path d="M14.7615 38.2578C23.2869 36.3064 31.585 40.7586 31.585 40.7586C31.585 40.7586 26.0529 48.3746 17.5086 50.326C8.9832 52.2773 0.68515 47.8252 0.68515 47.8252C0.68515 47.8252 6.21718 40.2092 14.7615 38.2578Z" stroke="black" stroke-width="0.8" stroke-miterlimit="10" stroke-linecap="round" stroke-linejoin="round"/>
<path d="M22.8322 57.2789C26.6213 49.3976 35.2793 45.6843 35.2793 45.6843C35.2793 45.6843 37.7801 54.7591 33.9721 62.6404C30.1641 70.5216 21.525 74.2349 21.525 74.2349C21.525 74.2349 19.0432 65.1601 22.8322 57.2789Z" stroke="black" stroke-width="0.8" stroke-miterlimit="10" stroke-linecap="round" stroke-linejoin="round"/>
<path d="M42.7438 62.8108C38.9547 54.9295 41.4365 45.8547 41.4365 45.8547C41.4365 45.8547 50.0945 49.568 53.8836 57.4493C57.6727 65.3305 55.1908 74.4053 55.1908 74.4053C55.1908 74.4053 46.5328 70.711 42.7438 62.8108Z" stroke="black" stroke-width="0.8" stroke-miterlimit="10" stroke-linecap="round" stroke-linejoin="round"/>
<path d="M59.4914 50.7049C50.966 48.7535 45.415 41.1375 45.415 41.1375C45.415 41.1375 53.7131 36.6853 62.2385 38.6367C70.7639 40.5881 76.3148 48.2041 76.3148 48.2041C76.3148 48.2041 68.0168 52.6563 59.4914 50.7049Z" stroke="black" stroke-width="0.8" stroke-miterlimit="10" stroke-linecap="round" stroke-linejoin="round"/>
<path d="M60.4576 30.0733C53.6183 35.5295 44.2025 35.1127 44.2025 35.1127C44.2025 35.1127 45.8887 25.8485 52.7279 20.3922C59.5672 14.936 68.983 15.3528 68.983 15.3528C68.983 15.3528 67.2969 24.617 60.4576 30.0733Z" stroke="black" stroke-width="0.8" stroke-miterlimit="10" stroke-linecap="round" stroke-linejoin="round"/>
<path d="M44.8773 39.3154C45.1577 35.9265 42.6378 32.9518 39.2488 32.6713C35.8598 32.3908 32.8851 34.9108 32.6047 38.2997C32.3242 41.6887 34.8441 44.6634 38.2331 44.9439C41.6221 45.2244 44.5968 42.7044 44.8773 39.3154Z" stroke="black" stroke-width="0.8" stroke-miterlimit="10" stroke-linecap="round" stroke-linejoin="round"/>
<path d="M38.8599 35.1129C39.1948 35.1129 39.4662 34.8415 39.4662 34.5066C39.4662 34.1718 39.1948 33.9004 38.8599 33.9004C38.5251 33.9004 38.2537 34.1718 38.2537 34.5066C38.2537 34.8415 38.5251 35.1129 38.8599 35.1129Z" fill="black"/>
<path d="M37.8559 37.3294C38.1907 37.3294 38.4621 37.058 38.4621 36.7232C38.4621 36.3884 38.1907 36.1169 37.8559 36.1169C37.521 36.1169 37.2496 36.3884 37.2496 36.7232C37.2496 37.058 37.521 37.3294 37.8559 37.3294Z" fill="black"/>
<path d="M42.649 38.9776C42.9838 38.9776 43.2553 38.7062 43.2553 38.3714C43.2553 38.0366 42.9838 37.7651 42.649 37.7651C42.3142 37.7651 42.0428 38.0366 42.0428 38.3714C42.0428 38.7062 42.3142 38.9776 42.649 38.9776Z" fill="black"/>
<path d="M34.9004 40.8534C35.2352 40.8534 35.5066 40.5819 35.5066 40.2471C35.5066 39.9123 35.2352 39.6409 34.9004 39.6409C34.5656 39.6409 34.2941 39.9123 34.2941 40.2471C34.2941 40.5819 34.5656 40.8534 34.9004 40.8534Z" fill="black"/>
<path d="M39.4662 40.3797C39.801 40.3797 40.0725 40.1083 40.0725 39.7735C40.0725 39.4387 39.801 39.1672 39.4662 39.1672C39.1314 39.1672 38.86 39.4387 38.86 39.7735C38.86 40.1083 39.1314 40.3797 39.4662 40.3797Z" fill="black"/>
<path d="M40.8113 42.5016C41.1462 42.5016 41.4176 42.2301 41.4176 41.8953C41.4176 41.5605 41.1462 41.2891 40.8113 41.2891C40.4765 41.2891 40.2051 41.5605 40.2051 41.8953C40.2051 42.2301 40.4765 42.5016 40.8113 42.5016Z" fill="black"/>
<path d="M39.3336 37.3294C39.6684 37.3294 39.9398 37.058 39.9398 36.7232C39.9398 36.3884 39.6684 36.1169 39.3336 36.1169C38.9988 36.1169 38.7273 36.3884 38.7273 36.7232C38.7273 37.058 38.9988 37.3294 39.3336 37.3294Z" fill="black"/>
<path d="M39.3336 38.7503C39.6684 38.7503 39.9398 38.4789 39.9398 38.1441C39.9398 37.8093 39.6684 37.5378 39.3336 37.5378C38.9988 37.5378 38.7273 37.8093 38.7273 38.1441C38.7273 38.4789 38.9988 38.7503 39.3336 38.7503Z" fill="black"/>
<path d="M40.8113 38.9776C41.1462 38.9776 41.4176 38.7062 41.4176 38.3714C41.4176 38.0366 41.1462 37.7651 40.8113 37.7651C40.4765 37.7651 40.2051 38.0366 40.2051 38.3714C40.2051 38.7062 40.4765 38.9776 40.8113 38.9776Z" fill="black"/>
<path d="M40.4324 35.8517C40.7672 35.8517 41.0387 35.5802 41.0387 35.2454C41.0387 34.9106 40.7672 34.6392 40.4324 34.6392C40.0976 34.6392 39.8262 34.9106 39.8262 35.2454C39.8262 35.5802 40.0976 35.8517 40.4324 35.8517Z" fill="black"/>
<path d="M37.0791 35.4159C37.4139 35.4159 37.6853 35.1444 37.6853 34.8096C37.6853 34.4748 37.4139 34.2034 37.0791 34.2034C36.7443 34.2034 36.4728 34.4748 36.4728 34.8096C36.4728 35.1444 36.7443 35.4159 37.0791 35.4159Z" fill="black"/>
<path d="M41.8344 40.5692C42.1692 40.5692 42.4406 40.2978 42.4406 39.9629C42.4406 39.6281 42.1692 39.3567 41.8344 39.3567C41.4995 39.3567 41.2281 39.6281 41.2281 39.9629C41.2281 40.2978 41.4995 40.5692 41.8344 40.5692Z" fill="black"/>
<path d="M41.8344 37.3294C42.1692 37.3294 42.4406 37.058 42.4406 36.7232C42.4406 36.3884 42.1692 36.1169 41.8344 36.1169C41.4995 36.1169 41.2281 36.3884 41.2281 36.7232C41.2281 37.058 41.4995 37.3294 41.8344 37.3294Z" fill="black"/>
<path d="M37.117 38.7503C37.4518 38.7503 37.7232 38.4789 37.7232 38.1441C37.7232 37.8093 37.4518 37.5378 37.117 37.5378C36.7822 37.5378 36.5107 37.8093 36.5107 38.1441C36.5107 38.4789 36.7822 38.7503 37.117 38.7503Z" fill="black"/>
<path d="M37.7232 40.2469C38.058 40.2469 38.3295 39.9755 38.3295 39.6407C38.3295 39.3058 38.058 39.0344 37.7232 39.0344C37.3884 39.0344 37.117 39.3058 37.117 39.6407C37.117 39.9755 37.3884 40.2469 37.7232 40.2469Z" fill="black"/>
<path d="M36.4728 41.308C36.8077 41.308 37.0791 41.0365 37.0791 40.7017C37.0791 40.3669 36.8077 40.0955 36.4728 40.0955C36.138 40.0955 35.8666 40.3669 35.8666 40.7017C35.8666 41.0365 36.138 41.308 36.4728 41.308Z" fill="black"/>
<path d="M36.3592 36.7232C36.694 36.7232 36.9654 36.4518 36.9654 36.117C36.9654 35.7822 36.694 35.5107 36.3592 35.5107C36.0244 35.5107 35.7529 35.7822 35.7529 36.117C35.7529 36.4518 36.0244 36.7232 36.3592 36.7232Z" fill="black"/>
<path d="M35.1467 37.3294C35.4815 37.3294 35.7529 37.058 35.7529 36.7232C35.7529 36.3884 35.4815 36.1169 35.1467 36.1169C34.8118 36.1169 34.5404 36.3884 34.5404 36.7232C34.5404 37.058 34.8118 37.3294 35.1467 37.3294Z" fill="black"/>
<path d="M39.1063 42.3878C39.4411 42.3878 39.7125 42.1164 39.7125 41.7815C39.7125 41.4467 39.4411 41.1753 39.1063 41.1753C38.7714 41.1753 38.5 41.4467 38.5 41.7815C38.5 42.1164 38.7714 42.3878 39.1063 42.3878Z" fill="black"/>
<path d="M37.0791 43.3351C37.4139 43.3351 37.6853 43.0636 37.6853 42.7288C37.6853 42.394 37.4139 42.1226 37.0791 42.1226C36.7443 42.1226 36.4728 42.394 36.4728 42.7288C36.4728 43.0636 36.7443 43.3351 37.0791 43.3351Z" fill="black"/>
<path d="M35.1467 38.9776C35.4815 38.9776 35.7529 38.7062 35.7529 38.3714C35.7529 38.0366 35.4815 37.7651 35.1467 37.7651C34.8118 37.7651 34.5404 38.0366 34.5404 38.3714C34.5404 38.7062 34.8118 38.9776 35.1467 38.9776Z" fill="black"/>
<path d="M38.7273 30.5471L38.86 20.885" stroke="black" stroke-width="0.8" stroke-miterlimit="10" stroke-linecap="round" stroke-linejoin="round"/>
<path d="M32.0586 33.9194L24.291 28.179" stroke="black" stroke-width="0.8" stroke-miterlimit="10" stroke-linecap="round" stroke-linejoin="round"/>
<path d="M30.6566 40.8533L21.3545 43.4298" stroke="black" stroke-width="0.8" stroke-miterlimit="10" stroke-linecap="round" stroke-linejoin="round"/>
<path d="M34.8246 46.4612L30.6566 55.176" stroke="black" stroke-width="0.8" stroke-miterlimit="10" stroke-linecap="round" stroke-linejoin="round"/>
<path d="M41.6828 45.6843L44.8088 54.8349" stroke="black" stroke-width="0.8" stroke-miterlimit="10" stroke-linecap="round" stroke-linejoin="round"/>
<path d="M46.4949 41.0427L55.5508 44.4339" stroke="black" stroke-width="0.8" stroke-miterlimit="10" stroke-linecap="round" stroke-linejoin="round"/>
<path d="M44.6762 34.5067L51.9701 28.179" stroke="black" stroke-width="0.8" stroke-miterlimit="10" stroke-linecap="round" stroke-linejoin="round"/>
</svg>
